<?xml version="1.0" encoding="UTF-8"?>
<svg id="Layer_1" data-name="Layer 1" xmlns="http://www.w3.org/2000/svg" xmlns:xlink="http://www.w3.org/1999/xlink" viewBox="0 0 1080 1350">
  <defs>
    <style>
      .cls-1 {
        fill: none;
      }

      .cls-1, .cls-2 {
        stroke: #ff9700;
        stroke-miterlimit: 10;
        stroke-width: 4px;
      }

      .cls-3 {
        fill: #262626;
      }

      .cls-2 {
        fill: #fff9dc;
      }

      .cls-4 {
        clip-path: url(#clippath);
      }
    </style>
    <clipPath id="clippath">
      <path class="cls-1" d="M872.5,1132.9c0-22.51,18.24-40.75,40.75-40.75h109.75V110.66c0-22.51-18.24-40.75-40.75-40.75H207.14v147.34c0,22.51-18.24,40.75-40.75,40.75H57v981.34c0,22.51,18.24,40.75,40.75,40.75h774.75v-147.19Z"/>
    </clipPath>
    <image id="image" width="1100" height="1181" xlink:href="../MASCOT/mascot@4x.png"/>
  </defs>
  <rect class="cls-2" x="8.5" y="9.15" width="1063" height="1331.7" rx="40.75" ry="40.75"/>
  <g>
    <g class="cls-4">
      <image width="1024" height="1536" transform="translate(47 -12) scale(.95)" xlink:href="ChatGPT Image Feb 4, 2026, 12_38_18 PM.png"/>
    </g>
    <path class="cls-1" d="M872.5,1132.9c0-22.51,18.24-40.75,40.75-40.75h109.75V110.66c0-22.51-18.24-40.75-40.75-40.75H207.14v147.34c0,22.51-18.24,40.75-40.75,40.75H57v981.34c0,22.51,18.24,40.75,40.75,40.75h774.75v-147.19Z"/>
  </g>
  <g>
    <use transform="translate(72.59 142) scale(.07)" xlink:href="#image"/>
    <path d="M123.17,105.87h-26.42l-3.83,11.9h-16.34l24.2-70.59h18.45l24.1,70.59h-16.24l-3.93-11.9ZM118.53,91.75l-8.57-26.22-8.57,26.22h17.14Z"/>
  </g>
  <g>
    <use transform="translate(998.93 1198.25) rotate(-180) scale(.07)" xlink:href="#image"/>
    <path d="M948.35,1234.38h26.42l3.83-11.9h16.34l-24.2,70.59h-18.45l-24.1-70.59h16.24l3.93,11.9ZM952.99,1248.5l8.57,26.22,8.57-26.22h-17.14Z"/>
  </g>
  <g>
    <path class="cls-3" d="M126.45,1189.76c-2.04,2.82-4.5,5.1-7.38,6.82-2.88,1.73-6.09,2.59-9.62,2.59-2.98,0-5.78-.57-8.41-1.71-2.63-1.14-4.93-2.69-6.89-4.65-1.97-1.96-3.53-4.26-4.68-6.91-1.15-2.65-1.72-5.48-1.72-8.5s.56-5.78,1.69-8.41c1.13-2.63,2.67-4.93,4.62-6.91,1.95-1.98,4.25-3.55,6.89-4.71,2.65-1.16,5.48-1.74,8.5-1.74,3.49,0,6.61.79,9.35,2.35,2.74,1.57,5.16,3.76,7.24,6.59l-7.35,5c-.47-.74-1-1.46-1.59-2.15-.59-.69-1.26-1.29-2-1.82-.75-.53-1.59-.95-2.53-1.26-.94-.31-1.98-.47-3.12-.47-1.76,0-3.43.37-5,1.12-1.57.75-2.94,1.74-4.12,2.97-1.18,1.24-2.1,2.68-2.76,4.32-.67,1.65-1,3.35-1,5.12s.33,3.47,1,5.12c.67,1.65,1.59,3.09,2.76,4.32,1.18,1.24,2.55,2.23,4.12,2.97,1.57.75,3.23,1.12,5,1.12,2.04,0,3.83-.54,5.38-1.62,1.55-1.08,2.83-2.46,3.85-4.15l7.76,4.59Z"/>
    <path class="cls-3" d="M166.68,1156.82v41.17h-8.82v-16.47h-16.18v16.47h-8.82v-41.17h8.82v16.47h16.18v-16.47h8.82Z"/>
    <path class="cls-3" d="M183.62,1198h-8.82v-41.17h8.82v41.17Z"/>
    <path class="cls-3" d="M215.39,1198l-8.35-12.71h-6.47v12.71h-8.82v-41.17h17.71c1.92,0,3.74.37,5.47,1.12,1.73.75,3.24,1.76,4.53,3.03,1.29,1.27,2.32,2.77,3.09,4.5s1.15,3.59,1.15,5.59c0,2.71-.69,5.17-2.06,7.38-1.37,2.22-3.18,3.93-5.41,5.15l9.41,14.41h-10.23ZM208.51,1177.06c.82,0,1.6-.16,2.32-.47.73-.31,1.35-.74,1.88-1.29.53-.55.95-1.19,1.26-1.91.31-.72.47-1.5.47-2.32s-.16-1.6-.47-2.32c-.31-.73-.74-1.36-1.26-1.91-.53-.55-1.16-.98-1.88-1.29-.73-.31-1.5-.47-2.32-.47h-7.94v12h7.94Z"/>
    <path class="cls-3" d="M256.8,1191.06h-15.41l-2.23,6.94h-9.53l14.12-41.17h10.76l14.06,41.17h-9.47l-2.29-6.94ZM254.09,1182.82l-5-15.29-5,15.29h10Z"/>
    <path class="cls-3" d="M313.38,1175.76c.04.27.06.55.06.82v.82c0,2.98-.54,5.79-1.62,8.41-1.08,2.63-2.57,4.93-4.47,6.91-1.9,1.98-4.15,3.55-6.73,4.71s-5.39,1.74-8.41,1.74-5.79-.57-8.44-1.71-4.96-2.69-6.94-4.65c-1.98-1.96-3.55-4.26-4.71-6.91-1.16-2.65-1.74-5.48-1.74-8.5s.57-5.78,1.71-8.41c1.14-2.63,2.69-4.93,4.65-6.91,1.96-1.98,4.27-3.55,6.94-4.71,2.67-1.16,5.51-1.74,8.53-1.74,3.49,0,6.62.79,9.38,2.35,2.76,1.57,5.17,3.76,7.21,6.59l-7.18,4.88c-.47-.71-1.03-1.39-1.68-2.06-.65-.67-1.37-1.26-2.18-1.79-.8-.53-1.68-.95-2.62-1.26-.94-.31-1.92-.47-2.94-.47-1.76,0-3.43.37-5,1.12-1.57.75-2.94,1.74-4.12,2.97-1.18,1.24-2.1,2.68-2.76,4.32-.67,1.65-1,3.35-1,5.12s.33,3.47,1,5.12c.67,1.65,1.59,3.09,2.76,4.32,1.18,1.24,2.55,2.23,4.12,2.97,1.57.75,3.24,1.12,5,1.12,2.51,0,4.73-.7,6.65-2.09,1.92-1.39,3.37-3.19,4.35-5.38h-11v-7.71h21.18Z"/>
    <path class="cls-3" d="M360.21,1198l-13.71-17.06v17.06h-8.82v-41.17h8.82v17.23l13.88-17.23h10.59l-16.23,20.23,16.71,20.94h-11.23Z"/>
    <path class="cls-3" d="M381.5,1199.17c-1.45,0-2.68-.51-3.68-1.53-1-1.02-1.5-2.25-1.5-3.71s.5-2.69,1.5-3.71c1-1.02,2.23-1.53,3.68-1.53s2.69.51,3.71,1.53c1.02,1.02,1.53,2.26,1.53,3.71s-.51,2.69-1.53,3.71c-1.02,1.02-2.26,1.53-3.71,1.53Z"/>
    <path class="cls-3" d="M452.73,1156.82v41.17h-8.82v-26l-12.12,16.47-12.18-16.47v26h-8.82v-41.17h8.82l12.18,16.71,12.12-16.71h8.82Z"/>
    <path class="cls-3" d="M485.97,1191.06h-15.41l-2.23,6.94h-9.53l14.12-41.17h10.76l14.06,41.17h-9.47l-2.29-6.94ZM483.26,1182.82l-5-15.29-5,15.29h10Z"/>
    <path class="cls-3" d="M530.08,1189.76v8.24h-26.29v-41.17h8.71v32.94h17.59Z"/>
    <path class="cls-3" d="M544.96,1198h-8.82v-41.17h8.82v41.17Z"/>
    <path class="cls-3" d="M118.8,1248.88c-1.66,2.3-3.67,4.16-6.02,5.57-2.35,1.41-4.97,2.11-7.85,2.11-2.43,0-4.72-.46-6.86-1.39-2.14-.93-4.02-2.19-5.63-3.79s-2.88-3.48-3.82-5.64-1.41-4.47-1.41-6.94.46-4.72,1.38-6.86c.92-2.14,2.18-4.02,3.77-5.64,1.59-1.62,3.47-2.9,5.63-3.84,2.16-.94,4.47-1.42,6.94-1.42,2.85,0,5.39.64,7.63,1.92,2.24,1.28,4.21,3.07,5.9,5.38l-6,4.08c-.38-.61-.82-1.19-1.3-1.75s-1.02-1.06-1.63-1.49c-.61-.43-1.3-.78-2.06-1.03-.77-.26-1.62-.38-2.54-.38-1.44,0-2.8.3-4.08.91-1.28.61-2.4,1.42-3.36,2.42s-1.71,2.18-2.26,3.53c-.54,1.34-.82,2.74-.82,4.18s.27,2.83.82,4.18c.54,1.34,1.3,2.52,2.26,3.53s2.08,1.82,3.36,2.42c1.28.61,2.64.91,4.08.91,1.66,0,3.13-.44,4.39-1.32,1.26-.88,2.31-2.01,3.14-3.38l6.34,3.74Z"/>
    <path class="cls-3" d="M142.32,1255.6l-6.82-10.37h-5.28v10.37h-7.2v-33.6h14.45c1.57,0,3.06.3,4.46.91,1.41.61,2.64,1.43,3.7,2.47s1.9,2.26,2.52,3.67.94,2.93.94,4.56c0,2.21-.56,4.22-1.68,6.02-1.12,1.81-2.59,3.21-4.42,4.2l7.68,11.76h-8.35ZM136.7,1238.51c.67,0,1.3-.13,1.9-.38.59-.26,1.1-.61,1.54-1.06.43-.45.78-.97,1.03-1.56.26-.59.38-1.22.38-1.9s-.13-1.3-.38-1.9c-.26-.59-.6-1.11-1.03-1.56-.43-.45-.94-.8-1.54-1.06-.59-.26-1.22-.38-1.9-.38h-6.48v9.79h6.48Z"/>
    <path class="cls-3" d="M177.31,1248.88v6.72h-21.26v-33.6h20.98v6.72h-13.87v6.72h10.42v6.72h-10.42v6.72h14.16Z"/>
    <path class="cls-3" d="M202.99,1249.93h-12.58l-1.82,5.66h-7.78l11.52-33.6h8.78l11.47,33.6h-7.73l-1.87-5.66ZM200.78,1243.21l-4.08-12.48-4.08,12.48h8.16Z"/>
    <path class="cls-3" d="M238.7,1228.72h-9.74v26.88h-7.2v-26.88h-9.79v-6.72h26.74v6.72Z"/>
    <path class="cls-3" d="M250.85,1255.6h-7.2v-33.6h7.2v33.6Z"/>
    <path class="cls-3" d="M287.85,1222l-11.52,33.6h-9.07l-11.47-33.6h7.87l8.16,24.86,8.11-24.86h7.92Z"/>
    <path class="cls-3" d="M314.06,1248.88v6.72h-21.26v-33.6h20.98v6.72h-13.87v6.72h10.42v6.72h-10.42v6.72h14.16Z"/>
    <path class="cls-3" d="M360.67,1222v33.6h-7.2v-13.44h-13.2v13.44h-7.2v-33.6h7.2v13.44h13.2v-13.44h7.2Z"/>
    <path class="cls-3" d="M388.56,1248.88v6.72h-21.26v-33.6h20.98v6.72h-13.87v6.72h10.42v6.72h-10.42v6.72h14.16Z"/>
    <path class="cls-3" d="M414.24,1249.93h-12.58l-1.82,5.66h-7.78l11.52-33.6h8.78l11.47,33.6h-7.73l-1.87-5.66ZM412.03,1243.21l-4.08-12.48-4.08,12.48h8.16Z"/>
    <path class="cls-3" d="M442.51,1222c2.3,0,4.47.44,6.5,1.32,2.03.88,3.81,2.07,5.33,3.58,1.52,1.5,2.73,3.28,3.62,5.33.9,2.05,1.34,4.24,1.34,6.58s-.44,4.47-1.32,6.5c-.88,2.03-2.07,3.82-3.58,5.35-1.5,1.54-3.28,2.74-5.33,3.62-2.05.88-4.24,1.32-6.58,1.32h-13.73v-33.6h13.73ZM442.03,1248.64c1.34,0,2.62-.26,3.82-.77s2.24-1.21,3.12-2.09c.88-.88,1.58-1.92,2.09-3.12.51-1.2.77-2.49.77-3.86s-.26-2.62-.77-3.82c-.51-1.2-1.21-2.25-2.09-3.14-.88-.9-1.92-1.6-3.12-2.11-1.2-.51-2.47-.77-3.82-.77h-6.05v19.68h6.05Z"/>
  </g>
</svg>