<?xml version="1.0" encoding="UTF-8"?>
<svg id="Layer_1" data-name="Layer 1" xmlns="http://www.w3.org/2000/svg" xmlns:xlink="http://www.w3.org/1999/xlink" viewBox="0 0 1080 1350">
  <defs>
    <style>
      .cls-1 {
        fill: none;
      }

      .cls-1, .cls-2 {
        stroke: #ff9700;
        stroke-miterlimit: 10;
        stroke-width: 4px;
      }

      .cls-3 {
        fill: #f2f2f2;
      }

      .cls-2 {
        fill: #fff9dc;
      }

      .cls-4 {
        clip-path: url(#clippath);
      }
    </style>
    <clipPath id="clippath">
      <path class="cls-1" d="M872.5,1132.9c0-22.51,18.24-40.75,40.75-40.75h109.75V110.66c0-22.51-18.24-40.75-40.75-40.75H207.14v147.34c0,22.51-18.24,40.75-40.75,40.75H57v981.34c0,22.51,18.24,40.75,40.75,40.75h774.75v-147.19Z"/>
    </clipPath>
    <image id="image" width="1100" height="1181" xlink:href="../MASCOT/mascot@4x.png"/>
  </defs>
  <rect class="cls-2" x="8.5" y="9.15" width="1063" height="1331.7" rx="40.75" ry="40.75"/>
  <g>
    <g class="cls-4">
      <image width="966" height="1212" transform="translate(57 69)" xlink:href="PARAS.png"/>
    </g>
    <path class="cls-1" d="M872.5,1132.9c0-22.51,18.24-40.75,40.75-40.75h109.75V110.66c0-22.51-18.24-40.75-40.75-40.75H207.14v147.34c0,22.51-18.24,40.75-40.75,40.75H57v981.34c0,22.51,18.24,40.75,40.75,40.75h774.75v-147.19Z"/>
  </g>
  <g>
    <use transform="translate(63.89 142) scale(.07)" xlink:href="#image"/>
    <path d="M117.25,117.77h-15.13v-54.15l-11.4,5.45-5.45-11.4,18.45-10.49h13.51v70.59Z"/>
  </g>
  <g>
    <use transform="translate(999.63 1198.25) rotate(-180) scale(.07)" xlink:href="#image"/>
    <path d="M946.27,1222.48h15.13v54.15l11.4-5.45,5.45,11.4-18.46,10.49h-13.51v-70.59Z"/>
  </g>
  <g>
    <path class="cls-3" d="M105.86,1156.82c2,0,3.89.38,5.68,1.15,1.78.76,3.34,1.81,4.68,3.15,1.33,1.33,2.39,2.89,3.18,4.68.78,1.79,1.18,3.7,1.18,5.74s-.38,3.9-1.15,5.71-1.81,3.37-3.15,4.71c-1.33,1.33-2.89,2.39-4.68,3.18-1.78.79-3.7,1.18-5.73,1.18h-8.12v11.71h-8.82v-41.17h16.94ZM104.86,1178.06c.9,0,1.74-.18,2.53-.53.78-.35,1.47-.82,2.06-1.41.59-.59,1.05-1.27,1.38-2.06.33-.78.5-1.63.5-2.53s-.17-1.69-.5-2.47c-.33-.78-.79-1.47-1.38-2.06-.59-.59-1.27-1.06-2.06-1.41-.79-.35-1.63-.53-2.53-.53h-7.12v13h7.12Z"/>
    <path class="cls-3" d="M147.98,1191.06h-15.41l-2.23,6.94h-9.53l14.12-41.17h10.76l14.06,41.17h-9.47l-2.29-6.94ZM145.27,1182.82l-5-15.29-5,15.29h10Z"/>
    <path class="cls-3" d="M189.45,1198l-8.35-12.71h-6.47v12.71h-8.82v-41.17h17.71c1.92,0,3.74.37,5.47,1.12,1.73.75,3.24,1.76,4.53,3.03,1.29,1.27,2.32,2.77,3.09,4.5s1.15,3.59,1.15,5.59c0,2.71-.69,5.17-2.06,7.38-1.37,2.22-3.18,3.93-5.41,5.15l9.41,14.41h-10.23ZM182.57,1177.06c.82,0,1.6-.16,2.32-.47.73-.31,1.35-.74,1.88-1.29.53-.55.95-1.19,1.26-1.91.31-.72.47-1.5.47-2.32s-.16-1.6-.47-2.32c-.31-.73-.74-1.36-1.26-1.91-.53-.55-1.16-.98-1.88-1.29-.73-.31-1.5-.47-2.32-.47h-7.94v12h7.94Z"/>
    <path class="cls-3" d="M230.86,1191.06h-15.41l-2.23,6.94h-9.53l14.12-41.17h10.76l14.06,41.17h-9.47l-2.29-6.94ZM228.15,1182.82l-5-15.29-5,15.29h10Z"/>
    <path class="cls-3" d="M278.62,1186.65c0,2.35-.48,4.32-1.43,5.91-.95,1.59-2.23,2.86-3.83,3.82-1.6.96-3.42,1.66-5.48,2.09-2.06.43-4.16.65-6.32.65-3.76,0-7.05-.88-9.85-2.65s-5.11-4-6.91-6.71l7.76-4.59c.43.75.97,1.46,1.62,2.15.65.69,1.36,1.29,2.15,1.82.78.53,1.64.96,2.56,1.29.92.33,1.85.5,2.79.5.78,0,1.65-.05,2.59-.15.94-.1,1.82-.29,2.65-.59.82-.29,1.51-.7,2.06-1.21.55-.51.82-1.2.82-2.06,0-.74-.23-1.37-.68-1.88-.45-.51-1.07-.96-1.85-1.35-.78-.39-1.71-.72-2.76-1-1.06-.27-2.2-.55-3.41-.82-1.61-.35-3.29-.79-5.06-1.32s-3.38-1.26-4.85-2.21c-1.47-.94-2.69-2.17-3.65-3.68-.96-1.51-1.44-3.44-1.44-5.79,0-2.16.43-4.07,1.29-5.73.86-1.67,2-3.05,3.41-4.15,1.41-1.1,3.02-1.93,4.82-2.5,1.8-.57,3.65-.85,5.53-.85,3.45,0,6.54.83,9.26,2.5,2.73,1.67,5.03,3.81,6.91,6.44l-7.35,5c-.35-.67-.83-1.33-1.42-2-.59-.67-1.26-1.27-2.01-1.82-.75-.55-1.56-1-2.45-1.35-.89-.35-1.82-.53-2.81-.53-.75,0-1.5.1-2.24.29-.75.2-1.43.49-2.04.88-.61.39-1.11.87-1.51,1.44-.39.57-.59,1.21-.59,1.91,0,.63.21,1.17.65,1.62.43.45,1.01.84,1.74,1.18.73.33,1.57.64,2.53.91.96.28,1.99.55,3.09.82,1.73.43,3.51.93,5.35,1.5,1.84.57,3.53,1.35,5.06,2.35s2.79,2.29,3.79,3.85c1,1.57,1.5,3.57,1.5,6Z"/>
    <path class="cls-3" d="M334.38,1186.65c0,2.35-.48,4.32-1.43,5.91-.95,1.59-2.23,2.86-3.83,3.82-1.6.96-3.42,1.66-5.48,2.09-2.06.43-4.16.65-6.32.65-3.76,0-7.05-.88-9.85-2.65s-5.11-4-6.91-6.71l7.76-4.59c.43.75.97,1.46,1.62,2.15.65.69,1.36,1.29,2.15,1.82.78.53,1.64.96,2.56,1.29.92.33,1.85.5,2.79.5.78,0,1.65-.05,2.59-.15.94-.1,1.82-.29,2.65-.59.82-.29,1.51-.7,2.06-1.21.55-.51.82-1.2.82-2.06,0-.74-.23-1.37-.68-1.88-.45-.51-1.07-.96-1.85-1.35-.78-.39-1.71-.72-2.76-1-1.06-.27-2.2-.55-3.41-.82-1.61-.35-3.29-.79-5.06-1.32s-3.38-1.26-4.85-2.21c-1.47-.94-2.69-2.17-3.65-3.68-.96-1.51-1.44-3.44-1.44-5.79,0-2.16.43-4.07,1.29-5.73.86-1.67,2-3.05,3.41-4.15,1.41-1.1,3.02-1.93,4.82-2.5,1.8-.57,3.65-.85,5.53-.85,3.45,0,6.54.83,9.26,2.5,2.73,1.67,5.03,3.81,6.91,6.44l-7.35,5c-.35-.67-.83-1.33-1.42-2-.59-.67-1.26-1.27-2.01-1.82-.75-.55-1.56-1-2.45-1.35-.89-.35-1.82-.53-2.81-.53-.75,0-1.5.1-2.24.29-.75.2-1.43.49-2.04.88-.61.39-1.11.87-1.51,1.44-.39.57-.59,1.21-.59,1.91,0,.63.21,1.17.65,1.62.43.45,1.01.84,1.74,1.18.73.33,1.57.64,2.53.91.96.28,1.99.55,3.09.82,1.73.43,3.51.93,5.35,1.5,1.84.57,3.53,1.35,5.06,2.35s2.79,2.29,3.79,3.85c1,1.57,1.5,3.57,1.5,6Z"/>
    <path class="cls-3" d="M374.79,1156.82v41.17h-8.82v-16.47h-16.18v16.47h-8.82v-41.17h8.82v16.47h16.18v-16.47h8.82Z"/>
    <path class="cls-3" d="M408.03,1191.06h-15.41l-2.23,6.94h-9.53l14.12-41.17h10.76l14.06,41.17h-9.47l-2.29-6.94ZM405.32,1182.82l-5-15.29-5,15.29h10Z"/>
    <path class="cls-3" d="M449.5,1198l-8.35-12.71h-6.47v12.71h-8.82v-41.17h17.71c1.92,0,3.74.37,5.47,1.12,1.73.75,3.24,1.76,4.53,3.03,1.29,1.27,2.32,2.77,3.09,4.5s1.15,3.59,1.15,5.59c0,2.71-.69,5.17-2.06,7.38-1.37,2.22-3.18,3.93-5.41,5.15l9.41,14.41h-10.23ZM442.61,1177.06c.82,0,1.6-.16,2.32-.47.73-.31,1.35-.74,1.88-1.29.53-.55.95-1.19,1.26-1.91.31-.72.47-1.5.47-2.32s-.16-1.6-.47-2.32c-.31-.73-.74-1.36-1.26-1.91-.53-.55-1.16-.98-1.88-1.29-.73-.31-1.5-.47-2.32-.47h-7.94v12h7.94Z"/>
    <path class="cls-3" d="M507.96,1156.82v41.17h-8.82v-26l-12.12,16.47-12.18-16.47v26h-8.82v-41.17h8.82l12.18,16.71,12.12-16.71h8.82Z"/>
    <path class="cls-3" d="M541.2,1191.06h-15.41l-2.23,6.94h-9.53l14.12-41.17h10.76l14.06,41.17h-9.47l-2.29-6.94ZM538.49,1182.82l-5-15.29-5,15.29h10Z"/>
    <path class="cls-3" d="M108.72,1237.84c.9.35,1.72.74,2.47,1.18.75.43,1.4.95,1.94,1.56.54.61.98,1.31,1.3,2.11.32.8.48,1.71.48,2.74,0,1.89-.42,3.53-1.27,4.92-.85,1.39-1.97,2.55-3.36,3.48-1.39.93-2.98,1.62-4.75,2.06-1.78.45-3.61.67-5.5.67-1.41,0-2.8-.15-4.18-.46-1.38-.3-2.66-.77-3.86-1.39-1.2-.62-2.27-1.42-3.22-2.38-.94-.96-1.7-2.11-2.28-3.46.29-.16.78-.44,1.46-.84.69-.4,1.4-.82,2.14-1.27.83-.51,1.74-1.06,2.74-1.63.29.58.68,1.14,1.18,1.7.5.56,1.07,1.06,1.73,1.51.66.45,1.38.81,2.18,1.08.8.27,1.65.41,2.54.41s1.75-.08,2.57-.24,1.54-.42,2.18-.77c.64-.35,1.15-.81,1.54-1.37.38-.56.58-1.24.58-2.04,0-1.06-.36-1.86-1.08-2.4-.72-.54-1.6-.94-2.64-1.18-1.04-.24-2.14-.37-3.31-.38-1.17-.02-2.2-.02-3.1-.02v-6.43c.58-.03,1.32-.07,2.23-.12s1.8-.18,2.66-.38c.86-.21,1.61-.54,2.23-1.01s.94-1.14.94-2.04c0-.64-.16-1.19-.48-1.66-.32-.46-.72-.85-1.2-1.15-.48-.3-1.02-.53-1.61-.67-.59-.14-1.18-.22-1.75-.22-.93,0-1.75.15-2.47.46-.72.3-1.34.69-1.87,1.15-.53.46-.96.95-1.3,1.46-.34.51-.57.98-.7,1.39-.99-.64-1.9-1.23-2.74-1.78-.74-.45-1.42-.88-2.06-1.3-.64-.42-1.06-.69-1.25-.82.48-1.22,1.16-2.28,2.04-3.19.88-.91,1.88-1.67,3-2.28,1.12-.61,2.34-1.06,3.65-1.37,1.31-.3,2.62-.46,3.94-.46s2.6.19,4.06.58c1.46.38,2.8.96,4.03,1.73,1.23.77,2.26,1.74,3.07,2.9.82,1.17,1.22,2.54,1.22,4.1s-.38,2.98-1.13,4.34c-.75,1.36-1.75,2.41-3,3.14Z"/>
    <path class="cls-3" d="M133.82,1222c2.3,0,4.47.44,6.5,1.32,2.03.88,3.81,2.07,5.33,3.58,1.52,1.5,2.73,3.28,3.62,5.33.9,2.05,1.34,4.24,1.34,6.58s-.44,4.47-1.32,6.5c-.88,2.03-2.07,3.82-3.58,5.35-1.5,1.54-3.28,2.74-5.33,3.62-2.05.88-4.24,1.32-6.58,1.32h-13.73v-33.6h13.73ZM133.34,1248.64c1.34,0,2.62-.26,3.82-.77s2.24-1.21,3.12-2.09c.88-.88,1.58-1.92,2.09-3.12.51-1.2.77-2.49.77-3.86s-.26-2.62-.77-3.82c-.51-1.2-1.21-2.25-2.09-3.14-.88-.9-1.92-1.6-3.12-2.11-1.2-.51-2.47-.77-3.82-.77h-6.05v19.68h6.05Z"/>
    <path class="cls-3" d="M204.24,1237.45c.03.22.05.45.05.67v.67c0,2.43-.44,4.72-1.32,6.86-.88,2.14-2.1,4.02-3.65,5.64-1.55,1.62-3.38,2.9-5.5,3.84-2.11.94-4.4,1.42-6.86,1.42s-4.73-.46-6.89-1.39-4.05-2.19-5.66-3.79c-1.62-1.6-2.9-3.48-3.84-5.64-.94-2.16-1.42-4.47-1.42-6.94s.46-4.72,1.39-6.86c.93-2.14,2.19-4.02,3.79-5.64,1.6-1.62,3.49-2.9,5.66-3.84,2.18-.94,4.5-1.42,6.96-1.42,2.85,0,5.4.64,7.66,1.92s4.22,3.07,5.88,5.38l-5.86,3.98c-.38-.58-.84-1.13-1.37-1.68-.53-.54-1.12-1.03-1.78-1.46-.66-.43-1.37-.78-2.14-1.03-.77-.26-1.57-.38-2.4-.38-1.44,0-2.8.3-4.08.91-1.28.61-2.4,1.42-3.36,2.42-.96,1.01-1.71,2.18-2.26,3.53-.54,1.34-.82,2.74-.82,4.18s.27,2.83.82,4.18c.54,1.34,1.3,2.52,2.26,3.53.96,1.01,2.08,1.82,3.36,2.42,1.28.61,2.64.91,4.08.91,2.05,0,3.86-.57,5.42-1.7,1.57-1.14,2.75-2.6,3.55-4.39h-8.98v-6.29h17.28Z"/>
    <path class="cls-3" d="M231.5,1248.88v6.72h-21.26v-33.6h20.98v6.72h-13.87v6.72h10.42v6.72h-10.42v6.72h14.16Z"/>
    <path class="cls-3" d="M257.95,1255.6l-14.3-19.92v19.92h-7.2v-33.6h6.62l14.35,19.97v-19.97h7.2v33.6h-6.67Z"/>
    <path class="cls-3" d="M292.27,1248.88v6.72h-21.26v-33.6h20.98v6.72h-13.87v6.72h10.42v6.72h-10.42v6.72h14.16Z"/>
    <path class="cls-3" d="M316.75,1255.6l-6.82-10.37h-5.28v10.37h-7.2v-33.6h14.45c1.57,0,3.06.3,4.46.91,1.41.61,2.64,1.43,3.7,2.47s1.9,2.26,2.52,3.67.94,2.93.94,4.56c0,2.21-.56,4.22-1.68,6.02-1.12,1.81-2.59,3.21-4.42,4.2l7.68,11.76h-8.35ZM311.13,1238.51c.67,0,1.3-.13,1.9-.38.59-.26,1.1-.61,1.54-1.06.43-.45.78-.97,1.03-1.56.26-.59.38-1.22.38-1.9s-.13-1.3-.38-1.9c-.26-.59-.6-1.11-1.03-1.56-.43-.45-.94-.8-1.54-1.06-.59-.26-1.22-.38-1.9-.38h-6.48v9.79h6.48Z"/>
    <path class="cls-3" d="M350.54,1249.93h-12.58l-1.82,5.66h-7.78l11.52-33.6h8.78l11.47,33.6h-7.73l-1.87-5.66ZM348.33,1243.21l-4.08-12.48-4.08,12.48h8.16Z"/>
    <path class="cls-3" d="M386.54,1248.88v6.72h-21.46v-33.6h7.1v26.88h14.35Z"/>
    <path class="cls-3" d="M398.68,1255.6h-7.2v-33.6h7.2v33.6Z"/>
    <path class="cls-3" d="M431.61,1246.33c0,1.92-.39,3.53-1.17,4.82-.78,1.3-1.82,2.34-3.12,3.12-1.3.79-2.79,1.35-4.47,1.7-1.68.35-3.4.53-5.16.53-3.07,0-5.75-.72-8.04-2.16-2.29-1.44-4.17-3.26-5.64-5.47l6.34-3.74c.35.61.79,1.19,1.32,1.75.53.56,1.11,1.06,1.75,1.49.64.43,1.34.78,2.09,1.06.75.27,1.51.41,2.28.41.64,0,1.34-.04,2.11-.12.77-.08,1.49-.24,2.16-.48.67-.24,1.23-.57,1.68-.98.45-.42.67-.98.67-1.68,0-.61-.18-1.12-.55-1.54-.37-.42-.87-.78-1.51-1.1-.64-.32-1.39-.59-2.26-.82-.86-.22-1.79-.45-2.78-.67-1.31-.29-2.69-.65-4.13-1.08-1.44-.43-2.76-1.03-3.96-1.8-1.2-.77-2.19-1.77-2.98-3-.78-1.23-1.18-2.81-1.18-4.73,0-1.76.35-3.32,1.06-4.68.7-1.36,1.63-2.49,2.78-3.38,1.15-.9,2.46-1.58,3.94-2.04,1.47-.46,2.98-.7,4.51-.7,2.82,0,5.34.68,7.56,2.04,2.22,1.36,4.1,3.11,5.64,5.26l-6,4.08c-.29-.54-.68-1.09-1.16-1.63-.48-.54-1.03-1.04-1.64-1.49-.61-.45-1.28-.82-2-1.1-.72-.29-1.49-.43-2.29-.43-.61,0-1.22.08-1.83.24-.61.16-1.16.4-1.66.72-.5.32-.91.71-1.23,1.18-.32.46-.48.98-.48,1.56,0,.51.18.95.53,1.32.35.37.82.69,1.42.96.59.27,1.28.52,2.06.74.78.22,1.62.45,2.52.67,1.41.35,2.86.76,4.37,1.22,1.5.46,2.88,1.1,4.13,1.92,1.25.82,2.28,1.86,3.1,3.14.82,1.28,1.22,2.91,1.22,4.9Z"/>
    <path class="cls-3" d="M461.47,1228.72h-9.74v26.88h-7.2v-26.88h-9.79v-6.72h26.74v6.72Z"/>
  </g>
</svg>