<?xml version="1.0" encoding="UTF-8"?>
<svg id="Layer_1" data-name="Layer 1" xmlns="http://www.w3.org/2000/svg" xmlns:xlink="http://www.w3.org/1999/xlink" viewBox="0 0 1080 1350">
  <defs>
    <style>
      .cls-1 {
        fill: none;
      }

      .cls-1, .cls-2 {
        stroke: #ff9700;
        stroke-miterlimit: 10;
        stroke-width: 4px;
      }

      .cls-3 {
        fill: #f2f2f2;
      }

      .cls-2 {
        fill: #fff9dc;
      }

      .cls-4 {
        clip-path: url(#clippath);
      }
    </style>
    <clipPath id="clippath">
      <path class="cls-1" d="M872.5,1132.9c0-22.51,18.24-40.75,40.75-40.75h109.75V110.66c0-22.51-18.24-40.75-40.75-40.75H207.14v147.34c0,22.51-18.24,40.75-40.75,40.75H57v981.34c0,22.51,18.24,40.75,40.75,40.75h774.75v-147.19Z"/>
    </clipPath>
    <image id="image" width="1100" height="1181" xlink:href="../MASCOT/mascot@4x.png"/>
  </defs>
  <rect class="cls-2" x="8.5" y="9.15" width="1063" height="1331.7" rx="40.75" ry="40.75"/>
  <g>
    <g class="cls-4">
      <image width="1024" height="1536" transform="translate(-91 -111) scale(1.23)" xlink:href="ChatGPT Image Feb 3, 2026, 07_10_13 PM.png"/>
    </g>
    <path class="cls-1" d="M872.5,1132.9c0-22.51,18.24-40.75,40.75-40.75h109.75V110.66c0-22.51-18.24-40.75-40.75-40.75H207.14v147.34c0,22.51-18.24,40.75-40.75,40.75H57v981.34c0,22.51,18.24,40.75,40.75,40.75h774.75v-147.19Z"/>
  </g>
  <g>
    <use transform="translate(69.28 142) scale(.07)" xlink:href="#image"/>
    <path d="M132.93,66.04c0,3.83-.84,7.53-2.52,11.09-1.68,3.56-3.78,6.94-6.3,10.13-2.52,3.19-5.24,6.17-8.17,8.92-2.92,2.76-5.66,5.24-8.22,7.46h24.81v14.12h-52.14v-7.46c4.77-4.57,8.99-8.59,12.66-12.05,3.66-3.46,6.86-6.5,9.58-9.13s5.01-4.92,6.86-6.91c1.85-1.98,3.33-3.81,4.44-5.5,1.11-1.68,1.9-3.28,2.37-4.79.47-1.51.71-3.14.71-4.89,0-.87-.2-1.76-.6-2.67s-.99-1.73-1.76-2.47c-.77-.74-1.75-1.34-2.92-1.81-1.18-.47-2.51-.71-3.98-.71-3.5,0-6.49.94-8.98,2.82-2.49,1.88-4.13,4.17-4.94,6.86-2.08-1.41-4-2.72-5.75-3.93-1.48-1.01-2.89-1.97-4.24-2.87-1.35-.91-2.19-1.5-2.52-1.76,1.07-2.55,2.5-4.79,4.29-6.71,1.78-1.92,3.8-3.51,6.05-4.79,2.25-1.28,4.69-2.23,7.31-2.87,2.62-.64,5.31-.96,8.07-.96s5.66.4,8.72,1.21c3.06.81,5.86,2.07,8.42,3.78,2.55,1.71,4.65,3.88,6.3,6.5,1.65,2.62,2.47,5.75,2.47,9.38Z"/>
  </g>
  <g>
    <use transform="translate(994.23 1198.25) rotate(-180) scale(.07)" xlink:href="#image"/>
    <path d="M930.59,1274.21c0-3.83.84-7.53,2.52-11.09,1.68-3.56,3.78-6.94,6.3-10.13,2.52-3.19,5.24-6.17,8.17-8.93,2.92-2.76,5.67-5.24,8.22-7.46h-24.81v-14.12h52.14v7.46c-4.77,4.57-8.99,8.59-12.66,12.05-3.66,3.46-6.86,6.5-9.58,9.13s-5.01,4.92-6.86,6.91c-1.85,1.98-3.33,3.82-4.44,5.5-1.11,1.68-1.9,3.28-2.37,4.79-.47,1.51-.71,3.14-.71,4.89,0,.87.2,1.76.6,2.67.4.91.99,1.73,1.77,2.47.77.74,1.75,1.34,2.92,1.82,1.18.47,2.51.71,3.98.71,3.5,0,6.49-.94,8.98-2.82,2.49-1.88,4.13-4.17,4.94-6.86,2.08,1.41,4,2.72,5.75,3.93,1.48,1.01,2.89,1.97,4.23,2.87,1.35.91,2.19,1.5,2.52,1.76-1.07,2.55-2.5,4.79-4.29,6.71s-3.8,3.51-6.05,4.79c-2.25,1.28-4.69,2.23-7.31,2.88-2.62.64-5.31.96-8.07.96s-5.66-.4-8.72-1.21c-3.06-.81-5.87-2.07-8.42-3.78-2.55-1.71-4.66-3.88-6.3-6.5-1.65-2.62-2.47-5.75-2.47-9.38Z"/>
  </g>
  <g>
    <path class="cls-3" d="M112.57,1198l-8.35-12.71h-6.47v12.71h-8.82v-41.17h17.71c1.92,0,3.74.37,5.47,1.12,1.73.75,3.24,1.76,4.53,3.03,1.29,1.27,2.32,2.77,3.09,4.5s1.15,3.59,1.15,5.59c0,2.71-.69,5.17-2.06,7.38-1.37,2.22-3.18,3.93-5.41,5.15l9.41,14.41h-10.23ZM105.69,1177.06c.82,0,1.6-.16,2.32-.47.73-.31,1.35-.74,1.88-1.29.53-.55.95-1.19,1.26-1.91.31-.72.47-1.5.47-2.32s-.16-1.6-.47-2.32c-.31-.73-.74-1.36-1.26-1.91-.53-.55-1.16-.98-1.88-1.29-.73-.31-1.5-.47-2.32-.47h-7.94v12h7.94Z"/>
    <path class="cls-3" d="M160.98,1182.29c0,2.31-.44,4.49-1.32,6.53s-2.08,3.82-3.59,5.35c-1.51,1.53-3.29,2.75-5.35,3.65-2.06.9-4.26,1.35-6.62,1.35s-4.5-.44-6.56-1.32c-2.06-.88-3.85-2.08-5.38-3.59-1.53-1.51-2.75-3.29-3.65-5.35-.9-2.06-1.35-4.26-1.35-6.62v-25.47h8.82v25.41c0,1.14.22,2.23.65,3.26.43,1.04,1.01,1.97,1.74,2.79.73.82,1.58,1.48,2.56,1.97.98.49,2.04.74,3.18.74s2.14-.24,3.12-.74c.98-.49,1.84-1.15,2.59-1.97.74-.82,1.32-1.75,1.74-2.79.41-1.04.62-2.13.62-3.26v-25.41h8.82v25.47Z"/>
    <path class="cls-3" d="M185.74,1156.82c2,0,3.89.38,5.68,1.15,1.78.76,3.34,1.81,4.68,3.15,1.33,1.33,2.39,2.89,3.18,4.68.78,1.79,1.18,3.7,1.18,5.74s-.38,3.9-1.15,5.71-1.81,3.37-3.15,4.71c-1.33,1.33-2.89,2.39-4.68,3.18-1.78.79-3.7,1.18-5.73,1.18h-8.12v11.71h-8.82v-41.17h16.94ZM184.74,1178.06c.9,0,1.74-.18,2.53-.53.78-.35,1.47-.82,2.06-1.41.59-.59,1.05-1.27,1.38-2.06.33-.78.5-1.63.5-2.53s-.17-1.69-.5-2.47c-.33-.78-.79-1.47-1.38-2.06-.59-.59-1.27-1.06-2.06-1.41-.79-.35-1.63-.53-2.53-.53h-7.12v13h7.12Z"/>
    <path class="cls-3" d="M232.33,1189.76v8.24h-26.06v-41.17h25.71v8.23h-17v8.24h12.76v8.24h-12.76v8.23h17.35Z"/>
    <path class="cls-3" d="M270.92,1186.65c0,2.35-.48,4.32-1.43,5.91-.95,1.59-2.23,2.86-3.83,3.82-1.6.96-3.42,1.66-5.48,2.09-2.06.43-4.16.65-6.32.65-3.76,0-7.05-.88-9.85-2.65s-5.11-4-6.91-6.71l7.76-4.59c.43.75.97,1.46,1.62,2.15.65.69,1.36,1.29,2.15,1.82.78.53,1.64.96,2.56,1.29.92.33,1.85.5,2.79.5.78,0,1.65-.05,2.59-.15.94-.1,1.82-.29,2.65-.59.82-.29,1.51-.7,2.06-1.21.55-.51.82-1.2.82-2.06,0-.74-.23-1.37-.68-1.88-.45-.51-1.07-.96-1.85-1.35-.78-.39-1.71-.72-2.76-1-1.06-.27-2.2-.55-3.41-.82-1.61-.35-3.29-.79-5.06-1.32s-3.38-1.26-4.85-2.21c-1.47-.94-2.69-2.17-3.65-3.68-.96-1.51-1.44-3.44-1.44-5.79,0-2.16.43-4.07,1.29-5.73.86-1.67,2-3.05,3.41-4.15,1.41-1.1,3.02-1.93,4.82-2.5,1.8-.57,3.65-.85,5.53-.85,3.45,0,6.54.83,9.26,2.5,2.73,1.67,5.03,3.81,6.91,6.44l-7.35,5c-.35-.67-.83-1.33-1.42-2-.59-.67-1.26-1.27-2.01-1.82-.75-.55-1.56-1-2.45-1.35-.89-.35-1.82-.53-2.81-.53-.75,0-1.5.1-2.24.29-.75.2-1.43.49-2.04.88-.61.39-1.11.87-1.51,1.44-.39.57-.59,1.21-.59,1.91,0,.63.21,1.17.65,1.62.43.45,1.01.84,1.74,1.18.73.33,1.57.64,2.53.91.96.28,1.99.55,3.09.82,1.73.43,3.51.93,5.35,1.5,1.84.57,3.53,1.35,5.06,2.35s2.79,2.29,3.79,3.85c1,1.57,1.5,3.57,1.5,6Z"/>
    <path class="cls-3" d="M311.33,1156.82v41.17h-8.82v-16.47h-16.18v16.47h-8.82v-41.17h8.82v16.47h16.18v-16.47h8.82Z"/>
    <path class="cls-3" d="M378.2,1175.76c.04.27.06.55.06.82v.82c0,2.98-.54,5.79-1.62,8.41-1.08,2.63-2.57,4.93-4.47,6.91-1.9,1.98-4.15,3.55-6.73,4.71s-5.39,1.74-8.41,1.74-5.79-.57-8.44-1.71-4.96-2.69-6.94-4.65c-1.98-1.96-3.55-4.26-4.71-6.91-1.16-2.65-1.74-5.48-1.74-8.5s.57-5.78,1.71-8.41c1.14-2.63,2.69-4.93,4.65-6.91,1.96-1.98,4.27-3.55,6.94-4.71,2.67-1.16,5.51-1.74,8.53-1.74,3.49,0,6.62.79,9.38,2.35,2.76,1.57,5.17,3.76,7.21,6.59l-7.18,4.88c-.47-.71-1.03-1.39-1.68-2.06-.65-.67-1.37-1.26-2.18-1.79-.8-.53-1.68-.95-2.62-1.26-.94-.31-1.92-.47-2.94-.47-1.76,0-3.43.37-5,1.12-1.57.75-2.94,1.74-4.12,2.97-1.18,1.24-2.1,2.68-2.76,4.32-.67,1.65-1,3.35-1,5.12s.33,3.47,1,5.12c.67,1.65,1.59,3.09,2.76,4.32,1.18,1.24,2.55,2.23,4.12,2.97,1.57.75,3.24,1.12,5,1.12,2.51,0,4.73-.7,6.65-2.09,1.92-1.39,3.37-3.19,4.35-5.38h-11v-7.71h21.18Z"/>
    <path class="cls-3" d="M418.2,1182.29c0,2.31-.44,4.49-1.32,6.53s-2.08,3.82-3.59,5.35c-1.51,1.53-3.29,2.75-5.35,3.65-2.06.9-4.26,1.35-6.62,1.35s-4.5-.44-6.56-1.32c-2.06-.88-3.85-2.08-5.38-3.59-1.53-1.51-2.75-3.29-3.65-5.35-.9-2.06-1.35-4.26-1.35-6.62v-25.47h8.82v25.41c0,1.14.22,2.23.65,3.26.43,1.04,1.01,1.97,1.74,2.79.73.82,1.58,1.48,2.56,1.97.98.49,2.04.74,3.18.74s2.14-.24,3.12-.74c.98-.49,1.84-1.15,2.59-1.97.74-.82,1.32-1.75,1.74-2.79.41-1.04.62-2.13.62-3.26v-25.41h8.82v25.47Z"/>
    <path class="cls-3" d="M442.97,1156.82c2,0,3.89.38,5.68,1.15,1.78.76,3.34,1.81,4.68,3.15,1.33,1.33,2.39,2.89,3.18,4.68.78,1.79,1.18,3.7,1.18,5.74s-.38,3.9-1.15,5.71-1.81,3.37-3.15,4.71c-1.33,1.33-2.89,2.39-4.68,3.18-1.78.79-3.7,1.18-5.73,1.18h-8.12v11.71h-8.82v-41.17h16.94ZM441.97,1178.06c.9,0,1.74-.18,2.53-.53.78-.35,1.47-.82,2.06-1.41.59-.59,1.05-1.27,1.38-2.06.33-.78.5-1.63.5-2.53s-.17-1.69-.5-2.47c-.33-.78-.79-1.47-1.38-2.06-.59-.59-1.27-1.06-2.06-1.41-.79-.35-1.63-.53-2.53-.53h-7.12v13h7.12Z"/>
    <path class="cls-3" d="M495.32,1165.06h-11.94v32.94h-8.82v-32.94h-12v-8.23h32.76v8.23Z"/>
    <path class="cls-3" d="M521.73,1191.06h-15.41l-2.23,6.94h-9.53l14.12-41.17h10.76l14.06,41.17h-9.47l-2.29-6.94ZM519.02,1182.82l-5-15.29-5,15.29h10Z"/>
    <path class="cls-3" d="M122.16,1222v33.6h-7.2v-21.22l-9.89,13.44-9.94-13.44v21.22h-7.2v-33.6h7.2l9.94,13.63,9.89-13.63h7.2Z"/>
    <path class="cls-3" d="M156.38,1242.78c0,1.89-.36,3.67-1.08,5.33-.72,1.66-1.7,3.12-2.93,4.37s-2.69,2.24-4.37,2.98c-1.68.74-3.48,1.1-5.4,1.1s-3.67-.36-5.35-1.08c-1.68-.72-3.14-1.7-4.39-2.93-1.25-1.23-2.24-2.69-2.98-4.37-.74-1.68-1.1-3.48-1.1-5.4v-20.78h7.2v20.74c0,.93.18,1.82.53,2.66.35.85.82,1.61,1.42,2.28.59.67,1.29,1.21,2.09,1.61.8.4,1.66.6,2.59.6s1.74-.2,2.54-.6c.8-.4,1.5-.94,2.11-1.61.61-.67,1.08-1.43,1.42-2.28.34-.85.5-1.74.5-2.66v-20.74h7.2v20.78Z"/>
    <path class="cls-3" d="M184.22,1248.88v6.72h-21.46v-33.6h7.1v26.88h14.35Z"/>
    <path class="cls-3" d="M209.85,1228.72h-9.74v26.88h-7.2v-26.88h-9.79v-6.72h26.74v6.72Z"/>
    <path class="cls-3" d="M222,1255.6h-7.2v-33.6h7.2v33.6Z"/>
    <path class="cls-3" d="M262.61,1222v33.6h-7.2v-21.22l-9.89,13.44-9.94-13.44v21.22h-7.2v-33.6h7.2l9.94,13.63,9.89-13.63h7.2Z"/>
    <path class="cls-3" d="M290.49,1248.88v6.72h-21.26v-33.6h20.98v6.72h-13.87v6.72h10.42v6.72h-10.42v6.72h14.16Z"/>
    <path class="cls-3" d="M309.41,1222c2.3,0,4.47.44,6.5,1.32,2.03.88,3.81,2.07,5.33,3.58,1.52,1.5,2.73,3.28,3.62,5.33.9,2.05,1.34,4.24,1.34,6.58s-.44,4.47-1.32,6.5c-.88,2.03-2.07,3.82-3.58,5.35-1.5,1.54-3.28,2.74-5.33,3.62-2.05.88-4.24,1.32-6.58,1.32h-13.73v-33.6h13.73ZM308.93,1248.64c1.34,0,2.62-.26,3.82-.77s2.24-1.21,3.12-2.09c.88-.88,1.58-1.92,2.09-3.12.51-1.2.77-2.49.77-3.86s-.26-2.62-.77-3.82c-.51-1.2-1.21-2.25-2.09-3.14-.88-.9-1.92-1.6-3.12-2.11-1.2-.51-2.47-.77-3.82-.77h-6.05v19.68h6.05Z"/>
    <path class="cls-3" d="M338.64,1255.6h-7.2v-33.6h7.2v33.6Z"/>
    <path class="cls-3" d="M365.76,1249.93h-12.58l-1.82,5.66h-7.78l11.52-33.6h8.78l11.47,33.6h-7.73l-1.87-5.66ZM363.55,1243.21l-4.08-12.48-4.08,12.48h8.16Z"/>
    <path class="cls-3" d="M414.62,1249.93h-12.58l-1.82,5.66h-7.78l11.52-33.6h8.78l11.47,33.6h-7.73l-1.87-5.66ZM412.41,1243.21l-4.08-12.48-4.08,12.48h8.16Z"/>
    <path class="cls-3" d="M448.46,1255.6l-6.82-10.37h-5.28v10.37h-7.2v-33.6h14.45c1.57,0,3.06.3,4.46.91,1.41.61,2.64,1.43,3.7,2.47s1.9,2.26,2.52,3.67.94,2.93.94,4.56c0,2.21-.56,4.22-1.68,6.02-1.12,1.81-2.59,3.21-4.42,4.2l7.68,11.76h-8.35ZM442.85,1238.51c.67,0,1.3-.13,1.9-.38.59-.26,1.1-.61,1.54-1.06.43-.45.78-.97,1.03-1.56.26-.59.38-1.22.38-1.9s-.13-1.3-.38-1.9c-.26-.59-.6-1.11-1.03-1.56-.43-.45-.94-.8-1.54-1.06-.59-.26-1.22-.38-1.9-.38h-6.48v9.79h6.48Z"/>
    <path class="cls-3" d="M485.57,1228.72h-9.74v26.88h-7.2v-26.88h-9.79v-6.72h26.74v6.72Z"/>
    <path class="cls-3" d="M497.71,1255.6h-7.2v-33.6h7.2v33.6Z"/>
    <path class="cls-3" d="M530.64,1246.33c0,1.92-.39,3.53-1.17,4.82-.78,1.3-1.82,2.34-3.12,3.12-1.3.79-2.79,1.35-4.47,1.7-1.68.35-3.4.53-5.16.53-3.07,0-5.75-.72-8.04-2.16-2.29-1.44-4.17-3.26-5.64-5.47l6.34-3.74c.35.61.79,1.19,1.32,1.75.53.56,1.11,1.06,1.75,1.49.64.43,1.34.78,2.09,1.06.75.27,1.51.41,2.28.41.64,0,1.34-.04,2.11-.12.77-.08,1.49-.24,2.16-.48.67-.24,1.23-.57,1.68-.98.45-.42.67-.98.67-1.68,0-.61-.18-1.12-.55-1.54-.37-.42-.87-.78-1.51-1.1-.64-.32-1.39-.59-2.26-.82-.86-.22-1.79-.45-2.78-.67-1.31-.29-2.69-.65-4.13-1.08-1.44-.43-2.76-1.03-3.96-1.8-1.2-.77-2.19-1.77-2.98-3-.78-1.23-1.18-2.81-1.18-4.73,0-1.76.35-3.32,1.06-4.68.7-1.36,1.63-2.49,2.78-3.38,1.15-.9,2.46-1.58,3.94-2.04,1.47-.46,2.98-.7,4.51-.7,2.82,0,5.34.68,7.56,2.04,2.22,1.36,4.1,3.11,5.64,5.26l-6,4.08c-.29-.54-.68-1.09-1.16-1.63-.48-.54-1.03-1.04-1.64-1.49-.61-.45-1.28-.82-2-1.1-.72-.29-1.49-.43-2.29-.43-.61,0-1.22.08-1.83.24-.61.16-1.16.4-1.66.72-.5.32-.91.71-1.23,1.18-.32.46-.48.98-.48,1.56,0,.51.18.95.53,1.32.35.37.82.69,1.42.96.59.27,1.28.52,2.06.74.78.22,1.62.45,2.52.67,1.41.35,2.86.76,4.37,1.22,1.5.46,2.88,1.1,4.13,1.92,1.25.82,2.28,1.86,3.1,3.14.82,1.28,1.22,2.91,1.22,4.9Z"/>
    <path class="cls-3" d="M560.49,1228.72h-9.74v26.88h-7.2v-26.88h-9.79v-6.72h26.74v6.72Z"/>
  </g>
</svg>