<?xml version="1.0" encoding="UTF-8"?>
<svg id="Layer_1" data-name="Layer 1" xmlns="http://www.w3.org/2000/svg" xmlns:xlink="http://www.w3.org/1999/xlink" viewBox="0 0 1080 1350">
  <defs>
    <style>
      .cls-1 {
        fill: none;
      }

      .cls-1, .cls-2 {
        stroke: #ff9700;
        stroke-miterlimit: 10;
        stroke-width: 4px;
      }

      .cls-3 {
        fill: #f2f2f2;
      }

      .cls-2 {
        fill: #fff9dc;
      }

      .cls-4 {
        clip-path: url(#clippath);
      }
    </style>
    <clipPath id="clippath">
      <path class="cls-1" d="M872.5,1132.9c0-22.51,18.24-40.75,40.75-40.75h109.75V110.66c0-22.51-18.24-40.75-40.75-40.75H207.14v147.34c0,22.51-18.24,40.75-40.75,40.75H57v981.34c0,22.51,18.24,40.75,40.75,40.75h774.75v-147.19Z"/>
    </clipPath>
    <image id="image" width="1100" height="1181" xlink:href="../MASCOT/mascot@4x.png"/>
  </defs>
  <rect class="cls-2" x="8.5" y="9.15" width="1063" height="1331.7" rx="40.75" ry="40.75"/>
  <g>
    <g class="cls-4">
      <image width="1024" height="1536" transform="translate(-12 -50) scale(1.01)" xlink:href="WhatsApp Image 2026-02-04 at 1.43.33 PM.jpeg"/>
    </g>
    <path class="cls-1" d="M872.5,1132.9c0-22.51,18.24-40.75,40.75-40.75h109.75V110.66c0-22.51-18.24-40.75-40.75-40.75H207.14v147.34c0,22.51-18.24,40.75-40.75,40.75H57v981.34c0,22.51,18.24,40.75,40.75,40.75h774.75v-147.19Z"/>
  </g>
  <g>
    <use transform="translate(75.49 142) scale(.07)" xlink:href="#image"/>
    <path d="M140.96,124.93l-10.98-9.38c-2.62,1.35-5.39,2.39-8.31,3.13-2.92.74-5.96,1.11-9.11,1.11-5.17,0-10.04-.99-14.6-2.98s-8.53-4.67-11.88-8.07c-3.36-3.39-6.01-7.34-7.96-11.85-1.95-4.5-2.92-9.31-2.92-14.42s.99-10.03,2.97-14.57c1.98-4.54,4.67-8.49,8.06-11.85,3.39-3.36,7.35-6.02,11.88-7.97,4.53-1.95,9.35-2.92,14.45-2.92s10.02.99,14.55,2.98c4.53,1.98,8.48,4.67,11.83,8.07,3.36,3.4,6.01,7.35,7.96,11.85,1.95,4.5,2.92,9.31,2.92,14.42,0,4.5-.74,8.76-2.22,12.76-1.48,4-3.53,7.61-6.15,10.84l9.08,7.76-9.57,11.09ZM112.56,105.77c.87,0,1.74-.07,2.62-.2.87-.13,1.71-.3,2.52-.5l-9.18-7.87,9.48-11.19,12.14,10.29c1.42-1.95,2.53-4.1,3.34-6.45.81-2.35,1.21-4.81,1.21-7.36,0-3.03-.57-5.95-1.71-8.77-1.14-2.82-2.72-5.29-4.74-7.41s-4.37-3.81-7.06-5.09c-2.69-1.28-5.55-1.92-8.57-1.92s-5.88.64-8.57,1.92c-2.69,1.28-5.04,2.98-7.06,5.09-2.02,2.12-3.6,4.59-4.74,7.41-1.14,2.82-1.71,5.75-1.71,8.77s.57,5.95,1.71,8.77c1.14,2.82,2.72,5.31,4.73,7.46,2.01,2.15,4.36,3.87,7.04,5.14,2.68,1.28,5.54,1.92,8.55,1.92Z"/>
  </g>
  <g>
    <use transform="translate(988.03 1198.25) rotate(-180) scale(.07)" xlink:href="#image"/>
    <path d="M922.56,1215.32l10.98,9.38c2.62-1.35,5.39-2.39,8.31-3.13,2.92-.74,5.96-1.11,9.11-1.11,5.17,0,10.04.99,14.6,2.98s8.53,4.67,11.88,8.07c3.36,3.39,6.01,7.34,7.96,11.85,1.95,4.5,2.92,9.31,2.92,14.42s-.99,10.04-2.97,14.57c-1.98,4.54-4.67,8.49-8.06,11.85-3.39,3.36-7.35,6.02-11.88,7.97-4.53,1.95-9.35,2.92-14.45,2.92s-10.02-.99-14.55-2.97c-4.53-1.98-8.48-4.67-11.83-8.07-3.36-3.4-6.01-7.35-7.96-11.85-1.95-4.51-2.92-9.31-2.92-14.42,0-4.5.74-8.76,2.22-12.76,1.48-4,3.53-7.61,6.15-10.84l-9.08-7.76,9.57-11.09ZM950.96,1234.48c-.87,0-1.74.07-2.62.2-.87.13-1.71.3-2.52.5l9.18,7.87-9.48,11.19-12.14-10.29c-1.42,1.95-2.53,4.1-3.34,6.45-.81,2.35-1.21,4.81-1.21,7.36,0,3.03.57,5.95,1.71,8.77,1.14,2.82,2.72,5.29,4.74,7.41,2.02,2.12,4.37,3.81,7.06,5.09,2.69,1.28,5.55,1.92,8.57,1.92s5.88-.64,8.57-1.92c2.69-1.28,5.04-2.98,7.06-5.09,2.02-2.12,3.6-4.59,4.74-7.41,1.14-2.82,1.71-5.75,1.71-8.77s-.57-5.95-1.71-8.77c-1.14-2.82-2.72-5.31-4.73-7.46-2.01-2.15-4.36-3.87-7.04-5.14-2.68-1.28-5.54-1.92-8.55-1.92Z"/>
  </g>
  <g>
    <path class="cls-3" d="M122.74,1182.29c0,2.31-.44,4.49-1.32,6.53s-2.08,3.82-3.59,5.35c-1.51,1.53-3.29,2.75-5.35,3.65-2.06.9-4.26,1.35-6.62,1.35s-4.5-.44-6.56-1.32c-2.06-.88-3.85-2.08-5.38-3.59-1.53-1.51-2.75-3.29-3.65-5.35-.9-2.06-1.35-4.26-1.35-6.62v-25.47h8.82v25.41c0,1.14.22,2.23.65,3.26.43,1.04,1.01,1.97,1.74,2.79.73.82,1.58,1.48,2.56,1.97.98.49,2.04.74,3.18.74s2.14-.24,3.12-.74c.98-.49,1.84-1.15,2.59-1.97.74-.82,1.32-1.75,1.74-2.79.41-1.04.62-2.13.62-3.26v-25.41h8.82v25.47Z"/>
    <path class="cls-3" d="M154.21,1198l-8.35-12.71h-6.47v12.71h-8.82v-41.17h17.71c1.92,0,3.74.37,5.47,1.12,1.73.75,3.24,1.76,4.53,3.03,1.29,1.27,2.32,2.77,3.09,4.5s1.15,3.59,1.15,5.59c0,2.71-.69,5.17-2.06,7.38-1.37,2.22-3.18,3.93-5.41,5.15l9.41,14.41h-10.23ZM147.33,1177.06c.82,0,1.6-.16,2.32-.47.73-.31,1.35-.74,1.88-1.29.53-.55.95-1.19,1.26-1.91.31-.72.47-1.5.47-2.32s-.16-1.6-.47-2.32c-.31-.73-.74-1.36-1.26-1.91-.53-.55-1.16-.98-1.88-1.29-.73-.31-1.5-.47-2.32-.47h-7.94v12h7.94Z"/>
    <path class="cls-3" d="M175.74,1168.06l7.76,21.71,7.82-21.71h9.29l-11.94,29.94h-10.29l-11.94-29.94h9.29Z"/>
    <path class="cls-3" d="M209.36,1154.47c1.44,0,2.67.51,3.68,1.53,1.01,1.02,1.52,2.26,1.52,3.71s-.51,2.69-1.52,3.71-2.24,1.53-3.68,1.53-2.67-.51-3.69-1.53-1.52-2.25-1.52-3.71.51-2.69,1.52-3.71c1.01-1.02,2.24-1.53,3.69-1.53ZM204.98,1168.06h8.82v29.94h-8.82v-29.94Z"/>
    <path class="cls-3" d="M270.38,1186.65c0,2.35-.48,4.32-1.43,5.91-.95,1.59-2.23,2.86-3.83,3.82-1.6.96-3.42,1.66-5.48,2.09-2.06.43-4.16.65-6.32.65-3.76,0-7.05-.88-9.85-2.65s-5.11-4-6.91-6.71l7.76-4.59c.43.75.97,1.46,1.62,2.15.65.69,1.36,1.29,2.15,1.82.78.53,1.64.96,2.56,1.29.92.33,1.85.5,2.79.5.78,0,1.65-.05,2.59-.15.94-.1,1.82-.29,2.65-.59.82-.29,1.51-.7,2.06-1.21.55-.51.82-1.2.82-2.06,0-.74-.23-1.37-.68-1.88-.45-.51-1.07-.96-1.85-1.35-.78-.39-1.71-.72-2.76-1-1.06-.27-2.2-.55-3.41-.82-1.61-.35-3.29-.79-5.06-1.32s-3.38-1.26-4.85-2.21c-1.47-.94-2.69-2.17-3.65-3.68-.96-1.51-1.44-3.44-1.44-5.79,0-2.16.43-4.07,1.29-5.73.86-1.67,2-3.05,3.41-4.15,1.41-1.1,3.02-1.93,4.82-2.5,1.8-.57,3.65-.85,5.53-.85,3.45,0,6.54.83,9.26,2.5,2.73,1.67,5.03,3.81,6.91,6.44l-7.35,5c-.35-.67-.83-1.33-1.42-2-.59-.67-1.26-1.27-2.01-1.82-.75-.55-1.56-1-2.45-1.35-.89-.35-1.82-.53-2.81-.53-.75,0-1.5.1-2.24.29-.75.2-1.43.49-2.04.88-.61.39-1.11.87-1.51,1.44-.39.57-.59,1.21-.59,1.91,0,.63.21,1.17.65,1.62.43.45,1.01.84,1.74,1.18.73.33,1.57.64,2.53.91.96.28,1.99.55,3.09.82,1.73.43,3.51.93,5.35,1.5,1.84.57,3.53,1.35,5.06,2.35s2.79,2.29,3.79,3.85c1,1.57,1.5,3.57,1.5,6Z"/>
    <path class="cls-3" d="M310.79,1156.82v41.17h-8.82v-16.47h-16.18v16.47h-8.82v-41.17h8.82v16.47h16.18v-16.47h8.82Z"/>
    <path class="cls-3" d="M344.03,1191.06h-15.41l-2.23,6.94h-9.53l14.12-41.17h10.76l14.06,41.17h-9.47l-2.29-6.94ZM341.32,1182.82l-5-15.29-5,15.29h10Z"/>
    <path class="cls-3" d="M395.67,1156.82v41.17h-8.82v-16.47h-16.18v16.47h-8.82v-41.17h8.82v16.47h16.18v-16.47h8.82Z"/>
    <path class="cls-3" d="M95.28,1228.72v7.63h10.99v6.96h-10.99v12.29h-7.1v-33.6h21.6v6.72h-14.5Z"/>
    <path class="cls-3" d="M130.25,1221.04c2.46,0,4.77.47,6.93,1.42,2.16.94,4.04,2.22,5.63,3.84,1.6,1.62,2.86,3.5,3.79,5.64.93,2.14,1.39,4.43,1.39,6.86s-.47,4.78-1.41,6.94c-.94,2.16-2.22,4.04-3.83,5.64-1.61,1.6-3.49,2.86-5.63,3.79-2.14.93-4.43,1.39-6.85,1.39s-4.77-.47-6.93-1.42c-2.16-.94-4.04-2.22-5.63-3.84-1.6-1.62-2.86-3.5-3.79-5.64-.93-2.14-1.39-4.43-1.39-6.86s.47-4.78,1.41-6.94c.94-2.16,2.21-4.04,3.81-5.64,1.6-1.6,3.48-2.86,5.63-3.79,2.16-.93,4.45-1.39,6.88-1.39ZM130.25,1249.89c1.44,0,2.81-.3,4.09-.91,1.28-.61,2.41-1.42,3.37-2.45.96-1.02,1.72-2.21,2.26-3.55.55-1.34.82-2.74.82-4.18s-.27-2.83-.82-4.18c-.54-1.34-1.3-2.52-2.26-3.53s-2.08-1.82-3.37-2.42c-1.28-.61-2.65-.91-4.09-.91s-2.81.3-4.09.91c-1.28.61-2.41,1.42-3.37,2.42-.96,1.01-1.72,2.18-2.26,3.53-.55,1.34-.82,2.74-.82,4.18s.27,2.83.82,4.18c.54,1.34,1.3,2.53,2.26,3.55.96,1.02,2.08,1.84,3.37,2.45,1.28.61,2.65.91,4.09.91Z"/>
    <path class="cls-3" d="M181.15,1242.78c0,1.89-.36,3.67-1.08,5.33-.72,1.66-1.7,3.12-2.93,4.37s-2.69,2.24-4.37,2.98c-1.68.74-3.48,1.1-5.4,1.1s-3.67-.36-5.35-1.08c-1.68-.72-3.14-1.7-4.39-2.93-1.25-1.23-2.24-2.69-2.98-4.37-.74-1.68-1.1-3.48-1.1-5.4v-20.78h7.2v20.74c0,.93.18,1.82.53,2.66.35.85.82,1.61,1.42,2.28.59.67,1.29,1.21,2.09,1.61.8.4,1.66.6,2.59.6s1.74-.2,2.54-.6c.8-.4,1.5-.94,2.11-1.61.61-.67,1.08-1.43,1.42-2.28.34-.85.5-1.74.5-2.66v-20.74h7.2v20.78Z"/>
    <path class="cls-3" d="M208.8,1255.6l-14.3-19.92v19.92h-7.2v-33.6h6.62l14.35,19.97v-19.97h7.2v33.6h-6.67Z"/>
    <path class="cls-3" d="M235.58,1222c2.3,0,4.47.44,6.5,1.32,2.03.88,3.81,2.07,5.33,3.58,1.52,1.5,2.73,3.28,3.62,5.33.9,2.05,1.34,4.24,1.34,6.58s-.44,4.47-1.32,6.5c-.88,2.03-2.07,3.82-3.58,5.35-1.5,1.54-3.28,2.74-5.33,3.62-2.05.88-4.24,1.32-6.58,1.32h-13.73v-33.6h13.73ZM235.1,1248.64c1.34,0,2.62-.26,3.82-.77s2.24-1.21,3.12-2.09c.88-.88,1.58-1.92,2.09-3.12.51-1.2.77-2.49.77-3.86s-.26-2.62-.77-3.82c-.51-1.2-1.21-2.25-2.09-3.14-.88-.9-1.92-1.6-3.12-2.11-1.2-.51-2.47-.77-3.82-.77h-6.05v19.68h6.05Z"/>
    <path class="cls-3" d="M278.88,1248.88v6.72h-21.26v-33.6h20.98v6.72h-13.87v6.72h10.42v6.72h-10.42v6.72h14.16Z"/>
    <path class="cls-3" d="M303.36,1255.6l-6.82-10.37h-5.28v10.37h-7.2v-33.6h14.45c1.57,0,3.06.3,4.46.91,1.41.61,2.64,1.43,3.7,2.47s1.9,2.26,2.52,3.67.94,2.93.94,4.56c0,2.21-.56,4.22-1.68,6.02-1.12,1.81-2.59,3.21-4.42,4.2l7.68,11.76h-8.35ZM297.74,1238.51c.67,0,1.3-.13,1.9-.38.59-.26,1.1-.61,1.54-1.06.43-.45.78-.97,1.03-1.56.26-.59.38-1.22.38-1.9s-.13-1.3-.38-1.9c-.26-.59-.6-1.11-1.03-1.56-.43-.45-.94-.8-1.54-1.06-.59-.26-1.22-.38-1.9-.38h-6.48v9.79h6.48Z"/>
  </g>
</svg>